Coordinates
version=1
nRows=29
nColumns=24
inDegrees=yes

Units are S.I. units (second, meters, Newtons, ...)
Angles are in degrees.

endheader
time	pelvis_tilt	pelvis_list	pelvis_rotation	pelvis_tx	pelvis_ty	pelvis_tz	hip_flexion_r	hip_adduction_r	hip_rotation_r	knee_angle_r	ankle_angle_r	subtalar_angle_r	mtp_angle_r	hip_flexion_l	hip_adduction_l	hip_rotation_l	knee_angle_l	ankle_angle_l	subtalar_angle_l	mtp_angle_l	lumbar_extension	lumbar_bending	lumbar_rotation
      0.58300000	     -1.96168723	      2.38147559	      6.55517644	     -0.91875832	      1.00592146	      0.31150556	     24.98681116	     -2.71982662	     -9.39474079	      3.73606596	      2.50474559	     -0.18930579	      6.05971085	    -12.07555148	      6.58425811	     12.63121304	     -9.13602311	     15.45514187	     -6.75248486	     -3.35645792	     -3.78769760	     -5.62056316	     -5.23931325
      0.58716667	     -1.90246036	      2.24813540	      6.58317722	     -0.91319876	      1.00528213	      0.31161468	     25.06077367	     -2.51839150	     -9.26199411	      3.02253833	      2.54562114	     -0.42518012	      6.07322092	    -12.25824766	      6.43053082	     12.66454721	     -9.56729941	     15.58671189	     -6.80378243	     -3.35695320	     -3.80607187	     -5.43427980	     -5.24058652
      0.59133333	     -1.83791923	      2.10405721	      6.58970063	     -0.90757209	      1.00465154	      0.31178995	     25.10272352	     -2.28787837	     -8.96087151	      2.33427413	      2.43053965	     -0.96805146	      6.13665030	    -12.42212717	      6.26067934	     12.55455314	    -10.05034378	     15.79825750	     -6.60282200	     -3.36360042	     -3.83547334	     -5.25603105	     -5.21984713
      0.59550000	     -1.77755316	      1.95562935	      6.60282526	     -0.90192253	      1.00406484	      0.31190956	     25.17577107	     -2.06698427	     -8.78399550	      1.55159919	      2.40016038	     -1.27125995	      6.16610407	    -12.58264405	      6.09928567	     12.54352568	    -10.53517301	     15.91471599	     -6.63352477	     -3.36263008	     -3.82879947	     -5.03588361	     -5.21613009
      0.59966667	     -1.71530321	      1.79488357	      6.58242001	     -0.89619663	      1.00348441	      0.31213545	     25.21486635	     -1.80488608	     -8.40172653	      0.82473631	      2.17816981	     -1.92379348	      6.24412040	    -12.74016795	      5.92095988	     12.43694506	    -11.02579453	     16.06619076	     -6.47867576	     -3.35522795	     -3.84424411	     -4.83267296	     -5.18445384
      0.60383333	     -1.64985658	      1.62983803	      6.57308880	     -0.89041779	      1.00295252	      0.31233438	     25.24765550	     -1.54437483	     -8.08140953	      0.08448727	      1.91222567	     -2.52901773	      6.33426074	    -12.88509879	      5.73992117	     12.32396930	    -11.55258115	     16.17187256	     -6.37448870	     -3.34037852	     -3.83983751	     -4.61312493	     -5.15615757
      0.60800000	     -1.58091338	      1.46629060	      6.55395813	     -0.88460780	      1.00245125	      0.31255971	     25.27061047	     -1.27686593	     -7.71829718	     -0.65160780	      1.58486019	     -3.19438026	      6.43644235	    -13.02844617	      5.56321108	     12.20162947	    -12.09724129	     16.24399211	     -6.28431186	     -3.31606914	     -3.83595424	     -4.39494355	     -5.12578494
      0.61216667	     -1.51785924	      1.29813202	      6.52951052	     -0.87874868	      1.00197988	      0.31281745	     25.29059607	     -0.99824966	     -7.33599844	     -1.37141202	      1.18524379	     -3.90401135	      6.54809116	    -13.15230899	      5.38372353	     12.07394672	    -12.66708467	     16.28724296	     -6.19569651	     -3.28070556	     -3.81622473	     -4.17682702	     -5.09134485
      0.61633333	     -1.43758171	      1.12600127	      6.50232646	     -0.87284125	      1.00156667	      0.31310142	     25.27843650	     -0.70791009	     -6.93236602	     -2.06392443	      0.69733895	     -4.68249423	      6.67967775	    -13.29360016	      5.19387068	     11.91876916	    -13.23783235	     16.30221944	     -6.07820954	     -3.22794923	     -3.82336474	     -3.96003754	     -5.05030530
      0.62050000	     -1.37302382	      0.96443880	      6.47854605	     -0.86691171	      1.00117370	      0.31340381	     25.27669112	     -0.42709282	     -6.52141124	     -2.74386281	      0.15255891	     -5.50413825	      6.84396115	    -13.39316236	      5.01874276	     11.76120057	    -13.86155694	     16.29512031	     -5.95726486	     -3.14700434	     -3.80709011	     -3.77254411	     -5.00141916
      0.62466667	     -1.31236447	      0.78517001	      6.44509950	     -0.86092584	      1.00081223	      0.31372961	     25.27124875	     -0.12321922	     -6.10690634	     -3.40458774	     -0.43618929	     -6.31045548	      7.01832828	    -13.48758620	      4.82529932	     11.59021419	    -14.48140707	     16.25419605	     -5.83118796	     -3.04407816	     -3.77141600	     -3.54558082	     -4.96172771
      0.62883333	     -1.26108450	      0.59736085	      6.40698534	     -0.85488198	      1.00047015	      0.31409560	     25.26562495	      0.19463406	     -5.68806334	     -4.04095536	     -1.08158630	     -7.13685744	      7.19937321	    -13.56176877	      4.62070747	     11.39072596	    -15.12706420	     16.18277448	     -5.69716329	     -2.91969789	     -3.71445513	     -3.31551343	     -4.91562785
      0.63300000	     -1.19763044	      0.40844242	      6.36751574	     -0.84880047	      1.00019249	      0.31447428	     25.23837570	      0.51579284	     -5.28246061	     -4.65960624	     -1.75656806	     -7.94456244	      7.39280173	    -13.63874927	      4.41381987	     11.19201659	    -15.78646252	     16.06819507	     -5.56589550	     -2.76530522	     -3.66970751	     -3.08409698	     -4.86727067
      0.63716667	     -1.13610623	      0.21427951	      6.32718065	     -0.84268858	      0.99995442	      0.31487265	     25.20769909	      0.84235401	     -4.89345503	     -5.26579923	     -2.45155576	     -8.72967726	      7.59599834	    -13.69765092	      4.19740705	     10.95755940	    -16.47008120	     15.91492459	     -5.40930361	     -2.57691311	     -3.61852238	     -2.84654884	     -4.81691488
      0.64133333	     -1.10011102	      0.01336342	      6.29556162	     -0.83653805	      0.99972662	      0.31527559	     25.20018186	      1.16818372	     -4.53789764	     -5.86646048	     -3.15150253	     -9.47342439	      7.79777976	    -13.71664072	      3.97268617	     10.72229581	    -17.18206514	     15.72849892	     -5.24369825	     -2.36024475	     -3.52674742	     -2.60743423	     -4.77796168
      0.64550000	     -1.06506165	     -0.19514750	      6.26219813	     -0.83034766	      0.99953278	      0.31570451	     25.19900034	      1.49557523	     -4.25880754	     -6.47866775	     -3.83357746	    -10.09173584	      9.90040624	    -13.69971138	      3.72558741	     10.37885246	    -17.94325636	     15.47770302	     -4.93624391	      0.18289491	     -3.43337895	     -2.36158934	     -4.73873042
      0.64966667	     -1.00182998	     -0.40386839	      6.22812907	     -0.82413216	      0.99943993	      0.31612314	     25.14766556	      1.82871944	     -3.94323555	     -7.05752821	     -4.51371206	    -10.77655951	      9.90319141	    -13.73680809	      3.49250730	     10.17944077	    -18.66134680	     15.15915995	     -4.90592561	      0.25057123	     -3.36905639	     -2.10695652	     -4.69474592
      0.65383333	     -0.95552685	     -0.61843927	      6.20179341	     -0.81789512	      0.99936792	      0.31656183	     25.11661242	      2.15904397	     -3.67652751	     -7.64921579	     -5.12763648	    -11.37314476	      9.92049971	    -13.71235184	      3.23902148	      9.88116763	    -19.45120933	     14.84266359	     -4.69771011	      0.38161005	     -3.28040272	     -1.85557308	     -4.65720919
      0.65800000	     -0.91677704	     -0.83876038	      6.17983431	     -0.81162731	      0.99933053	      0.31700545	     25.09286312	      2.48802300	     -3.45047706	     -8.25034873	     -5.68577209	    -11.90723619	      9.94617839	    -13.66805418	      2.97298606	      9.56524138	    -20.25672301	     14.48339134	     -4.47570941	      0.57362985	     -3.17763832	     -1.59926144	     -4.62242087
      0.66216667	     -0.86456558	     -1.06505204	      6.15749487	     -0.80535140	      0.99935624	      0.31745330	     25.05471035	      2.81987703	     -3.25533076	     -8.86000071	     -6.18440136	    -12.38722711	      9.97868964	    -13.61072777	      2.69499898	      9.22266476	    -21.10194406	     14.06233958	     -4.24181683	      0.84329344	     -3.09168006	     -1.33524753	     -4.58718026
      0.66633333	     -0.81352693	     -1.29233741	      6.14367702	     -0.79905948	      0.99943116	      0.31790176	     25.01653485	      3.14396384	     -3.10174902	     -9.47994404	     -6.61054579	    -12.80558142	     10.01294471	    -13.53087994	      2.40536574	      8.85460004	    -21.96989045	     13.60581561	     -3.97881081	      1.20129475	     -2.99962579	     -1.06942313	     -4.56078726
      0.67050000	     -0.75325632	     -1.52362305	      6.12912252	     -0.79274611	      0.99955915	      0.31835980	     24.96696557	      3.46925097	     -2.97475578	    -10.10854407	     -6.96820582	    -13.18683962	     10.05051537	    -13.44469128	      2.10238977	      8.46267262	    -22.85981256	     13.09096617	     -3.69528997	      1.74451434	     -2.91461379	     -0.80073911	     -4.52867983
      0.67466667	     -0.62685004	     -1.75159664	      6.12346282	     -0.78643345	      0.99983600	      0.31878579	     24.84393243	      3.78460770	     -2.91645296	    -10.75056871	     -7.17244678	    -13.40096530	     10.25645978	    -13.42001430	      1.79620101	      8.11214237	    -23.73377907	     12.30974583	     -3.59637192	      6.46405304	     -2.92416311	     -0.52037563	     -4.51503314
      0.67883333	     -0.59639283	     -1.96848179	      6.12143864	     -0.78011802	      1.00003194	      0.31921128	     24.83124108	      4.06941742	     -2.87953337	    -11.42560484	     -7.29927081	    -13.51731026	     10.25001793	    -13.25418485	      1.50659724	      7.74907668	    -24.67976082	     11.60404925	     -3.41846007	      6.49955795	     -2.80595981	     -0.27359347	     -4.50856273
      0.68300000	     -0.50913237	     -2.19588257	      6.11250747	     -0.77380393	      1.00030999	      0.31968047	     24.75459186	      4.37605541	     -2.85479735	    -12.09853410	     -7.39980578	    -13.73779929	     10.22494808	    -13.10850834	      1.17494794	      7.26312954	    -25.68978605	     10.97467215	     -3.04190556	      6.68480161	     -2.74893914	     -0.01286772	     -4.47818629
      0.68716667	     -0.42759477	     -2.42374132	      6.11921730	     -0.76749296	      1.00063329	      0.32013387	     24.67177490	      4.67243875	     -2.85685547	    -12.76094634	     -7.39507320	    -13.86550209	     10.16397987	    -12.92858548	      0.83189072	      6.79438784	    -26.73203182	     10.23305579	     -2.67497231	      7.12593990	     -2.68976538	      0.24433330	     -4.45061282
      0.69133333	     -0.31260131	     -2.64495477	      6.11832738	     -0.76117958	      1.00106159	      0.32057641	     24.54101032	      4.96467421	     -2.86999053	    -13.41209841	     -7.32863294	    -13.94229278	      9.55219831	    -12.77908673	      0.49852053	      6.36652190	    -27.75046881	      9.23348392	     -2.55871566	     11.09889787	     -2.67405952	      0.51335890	     -4.44277065
      0.69550000	     -0.21463458	     -2.85409547	      6.11075619	     -0.75489369	      1.00147957	      0.32104401	     24.42999548	      5.24203872	     -2.89497918	    -14.07836738	     -7.17023612	    -13.95373495	      9.54737552	    -12.56711832	      0.16496514	      5.88499948	    -28.84657684	      8.34049142	     -2.28109673	     11.16850559	     -2.64216841	      0.75559638	     -4.42924738
      0.69966667	     -0.10333583	     -3.06228074	      6.11225146	     -0.74862590	      1.00195664	      0.32150943	     24.28077269	      5.51967686	     -2.91225026	    -14.70052322	     -6.99082831	    -13.98799117	      9.54074707	    -12.34846130	     -0.17584658	      5.43241211	    -29.96107619	      7.31407560	     -2.06284472	     11.22778822	     -2.62774939	      0.99301723	     -4.41901872
